<svg width="14" height="58" viewBox="0 0 14 58" fill="none" xmlns="http://www.w3.org/2000/svg">
<path d="M7.31347 10.7574C7.12654 10.8932 6.87343 10.8932 6.6865 10.7574L2.18481 7.48677C1.99788 7.35096 1.91967 7.11023 1.99107 6.89049L3.71056 1.59843C3.78196 1.37869 3.98673 1.22991 4.21779 1.22991L9.78218 1.22991C10.0132 1.22991 10.218 1.37869 10.2894 1.59843L12.0089 6.89048C12.0803 7.11023 12.0021 7.35096 11.8152 7.48677L7.31347 10.7574Z" fill="#E15148"/>
<path d="M7.30985 10.7638C7.12441 10.8962 6.8753 10.8962 6.68986 10.7638L2.22415 7.5739C1.92377 7.35934 1.92694 6.91186 2.23033 6.70158L3.69324 5.6876C3.78248 5.62575 3.88848 5.59261 3.99706 5.59261L10.0029 5.59261C10.1115 5.59261 10.2175 5.62575 10.3067 5.6876L11.7696 6.70157C12.073 6.91185 12.0762 7.35934 11.7758 7.5739L7.30985 10.7638Z" fill="#AD3E37"/>
<path d="M3.07569 9.66196C3.11695 9.10495 3.58091 8.67409 4.13944 8.67409H9.86199C10.4205 8.67409 10.8845 9.10495 10.9257 9.66196L13.8992 49.8039C13.9214 50.1034 13.8163 50.3983 13.6098 50.6163L7.77507 56.7752C7.35434 57.2193 6.64709 57.2193 6.22637 56.7752L0.391611 50.6163C0.185094 50.3983 0.0800264 50.1034 0.102209 49.8039L3.07569 9.66196Z" fill="#E15148"/>
</svg>
